<mxfile host="app.diagrams.net" modified="2023-05-29T05:59:38.849Z" agent="Mozilla/5.0 (Windows NT 10.0; Win64; x64) AppleWebKit/537.36 (KHTML, like Gecko) Chrome/113.0.0.0 Safari/537.36" etag="8jXYGch6j2RrNYflD0r3" version="21.3.5" type="device">
  <diagram name="Page-1" id="ZnBycrOcbZc2g3glk5I5">
    <mxGraphModel dx="1235" dy="1761" grid="1" gridSize="10" guides="1" tooltips="1" connect="1" arrows="1" fold="1" page="1" pageScale="1" pageWidth="850" pageHeight="1100" math="0" shadow="0">
      <root>
        <mxCell id="0" />
        <mxCell id="1" parent="0" />
        <mxCell id="KymnQMp04L1_Xn4oVz9M-1" value="&lt;span style=&quot;font-weight: normal;&quot;&gt;&amp;lt;&amp;lt;abstract&amp;gt;&amp;gt;&lt;/span&gt;&lt;br&gt;Scene" style="swimlane;fontStyle=1;align=center;verticalAlign=top;childLayout=stackLayout;horizontal=1;startSize=40;horizontalStack=0;resizeParent=1;resizeParentMax=0;resizeLast=0;collapsible=1;marginBottom=0;whiteSpace=wrap;html=1;rounded=0;" vertex="1" collapsed="1" parent="1">
          <mxGeometry x="418" y="-814" width="110" height="40" as="geometry">
            <mxRectangle x="230" y="-911" width="160" height="250" as="alternateBounds" />
          </mxGeometry>
        </mxCell>
        <mxCell id="KymnQMp04L1_Xn4oVz9M-2" value="-&amp;nbsp;_buttons: List&amp;lt;Button&amp;gt;" style="text;strokeColor=none;fillColor=none;align=left;verticalAlign=top;spacingLeft=4;spacingRight=4;overflow=hidden;rotatable=0;points=[[0,0.5],[1,0.5]];portConstraint=eastwest;whiteSpace=wrap;html=1;rounded=0;" vertex="1" parent="KymnQMp04L1_Xn4oVz9M-1">
          <mxGeometry y="40" width="160" height="26" as="geometry" />
        </mxCell>
        <mxCell id="KymnQMp04L1_Xn4oVz9M-3" value="" style="line;strokeWidth=1;fillColor=none;align=left;verticalAlign=middle;spacingTop=-1;spacingLeft=3;spacingRight=3;rotatable=0;labelPosition=right;points=[];portConstraint=eastwest;strokeColor=inherit;rounded=0;" vertex="1" parent="KymnQMp04L1_Xn4oVz9M-1">
          <mxGeometry y="66" width="160" height="8" as="geometry" />
        </mxCell>
        <mxCell id="KymnQMp04L1_Xn4oVz9M-4" value="+ Scene()" style="text;strokeColor=none;fillColor=none;align=left;verticalAlign=top;spacingLeft=4;spacingRight=4;overflow=hidden;rotatable=0;points=[[0,0.5],[1,0.5]];portConstraint=eastwest;whiteSpace=wrap;html=1;rounded=0;" vertex="1" parent="KymnQMp04L1_Xn4oVz9M-1">
          <mxGeometry y="74" width="160" height="36" as="geometry" />
        </mxCell>
        <mxCell id="KymnQMp04L1_Xn4oVz9M-5" value="+ Button: List&amp;lt;Button&amp;gt; &amp;lt;&amp;lt;readonly, property&amp;gt;&amp;gt;" style="text;strokeColor=none;fillColor=none;align=left;verticalAlign=top;spacingLeft=4;spacingRight=4;overflow=hidden;rotatable=0;points=[[0,0.5],[1,0.5]];portConstraint=eastwest;whiteSpace=wrap;html=1;rounded=0;" vertex="1" parent="KymnQMp04L1_Xn4oVz9M-1">
          <mxGeometry y="110" width="160" height="49" as="geometry" />
        </mxCell>
        <mxCell id="KymnQMp04L1_Xn4oVz9M-6" value="+ Update() &amp;lt;&amp;lt;virtual&amp;gt;&amp;gt;" style="text;strokeColor=none;fillColor=none;align=left;verticalAlign=top;spacingLeft=4;spacingRight=4;overflow=hidden;rotatable=0;points=[[0,0.5],[1,0.5]];portConstraint=eastwest;whiteSpace=wrap;html=1;rounded=0;" vertex="1" parent="KymnQMp04L1_Xn4oVz9M-1">
          <mxGeometry y="159" width="160" height="26" as="geometry" />
        </mxCell>
        <mxCell id="KymnQMp04L1_Xn4oVz9M-7" value="+ Draw() &amp;lt;&amp;lt;virtual&amp;gt;&amp;gt;" style="text;strokeColor=none;fillColor=none;align=left;verticalAlign=top;spacingLeft=4;spacingRight=4;overflow=hidden;rotatable=0;points=[[0,0.5],[1,0.5]];portConstraint=eastwest;whiteSpace=wrap;html=1;rounded=0;" vertex="1" parent="KymnQMp04L1_Xn4oVz9M-1">
          <mxGeometry y="185" width="160" height="26" as="geometry" />
        </mxCell>
        <mxCell id="KymnQMp04L1_Xn4oVz9M-8" value="#&amp;nbsp;FetchButton(string name): Button" style="text;strokeColor=none;fillColor=none;align=left;verticalAlign=top;spacingLeft=4;spacingRight=4;overflow=hidden;rotatable=0;points=[[0,0.5],[1,0.5]];portConstraint=eastwest;whiteSpace=wrap;html=1;rounded=0;" vertex="1" parent="KymnQMp04L1_Xn4oVz9M-1">
          <mxGeometry y="211" width="160" height="39" as="geometry" />
        </mxCell>
        <mxCell id="KymnQMp04L1_Xn4oVz9M-9" value="&lt;b&gt;SceneFactory&lt;/b&gt;" style="swimlane;fontStyle=0;childLayout=stackLayout;horizontal=1;startSize=40;fillColor=none;horizontalStack=0;resizeParent=1;resizeParentMax=0;resizeLast=0;collapsible=1;marginBottom=0;whiteSpace=wrap;html=1;rounded=0;" vertex="1" parent="1">
          <mxGeometry x="48" y="-859" width="200" height="130" as="geometry">
            <mxRectangle x="-330" y="-140" width="100" height="30" as="alternateBounds" />
          </mxGeometry>
        </mxCell>
        <mxCell id="KymnQMp04L1_Xn4oVz9M-10" value="+ CreateScene(): Scene" style="text;strokeColor=none;fillColor=none;align=left;verticalAlign=top;spacingLeft=4;spacingRight=4;overflow=hidden;rotatable=0;points=[[0,0.5],[1,0.5]];portConstraint=eastwest;whiteSpace=wrap;html=1;rounded=0;" vertex="1" parent="KymnQMp04L1_Xn4oVz9M-9">
          <mxGeometry y="40" width="200" height="26" as="geometry" />
        </mxCell>
        <mxCell id="KymnQMp04L1_Xn4oVz9M-11" value="+ CreateScene(int sceneID): Scene" style="text;strokeColor=none;fillColor=none;align=left;verticalAlign=top;spacingLeft=4;spacingRight=4;overflow=hidden;rotatable=0;points=[[0,0.5],[1,0.5]];portConstraint=eastwest;whiteSpace=wrap;html=1;rounded=0;" vertex="1" parent="KymnQMp04L1_Xn4oVz9M-9">
          <mxGeometry y="66" width="200" height="26" as="geometry" />
        </mxCell>
        <mxCell id="KymnQMp04L1_Xn4oVz9M-12" value="+ CreateEndScene(uint playedTime, uint score): Scene" style="text;strokeColor=none;fillColor=none;align=left;verticalAlign=top;spacingLeft=4;spacingRight=4;overflow=hidden;rotatable=0;points=[[0,0.5],[1,0.5]];portConstraint=eastwest;whiteSpace=wrap;html=1;rounded=0;" vertex="1" parent="KymnQMp04L1_Xn4oVz9M-9">
          <mxGeometry y="92" width="200" height="38" as="geometry" />
        </mxCell>
        <mxCell id="KymnQMp04L1_Xn4oVz9M-13" value="HomeScene" style="swimlane;fontStyle=1;align=center;verticalAlign=top;childLayout=stackLayout;horizontal=1;startSize=30;horizontalStack=0;resizeParent=1;resizeParentMax=0;resizeLast=0;collapsible=1;marginBottom=0;whiteSpace=wrap;html=1;rounded=0;" vertex="1" collapsed="1" parent="1">
          <mxGeometry x="640" y="-960" width="100" height="30" as="geometry">
            <mxRectangle x="113" y="-895" width="160" height="230" as="alternateBounds" />
          </mxGeometry>
        </mxCell>
        <mxCell id="KymnQMp04L1_Xn4oVz9M-14" value="- _downSprite1: Sprite" style="text;strokeColor=none;fillColor=none;align=left;verticalAlign=top;spacingLeft=4;spacingRight=4;overflow=hidden;rotatable=0;points=[[0,0.5],[1,0.5]];portConstraint=eastwest;whiteSpace=wrap;html=1;rounded=0;" vertex="1" parent="KymnQMp04L1_Xn4oVz9M-13">
          <mxGeometry y="30" width="160" height="26" as="geometry" />
        </mxCell>
        <mxCell id="KymnQMp04L1_Xn4oVz9M-15" value="- _homeBackground: Sprite" style="text;strokeColor=none;fillColor=none;align=left;verticalAlign=top;spacingLeft=4;spacingRight=4;overflow=hidden;rotatable=0;points=[[0,0.5],[1,0.5]];portConstraint=eastwest;whiteSpace=wrap;html=1;rounded=0;" vertex="1" parent="KymnQMp04L1_Xn4oVz9M-13">
          <mxGeometry y="56" width="160" height="26" as="geometry" />
        </mxCell>
        <mxCell id="KymnQMp04L1_Xn4oVz9M-16" value="- _downSprite2: Sprite" style="text;strokeColor=none;fillColor=none;align=left;verticalAlign=top;spacingLeft=4;spacingRight=4;overflow=hidden;rotatable=0;points=[[0,0.5],[1,0.5]];portConstraint=eastwest;whiteSpace=wrap;html=1;rounded=0;" vertex="1" parent="KymnQMp04L1_Xn4oVz9M-13">
          <mxGeometry y="82" width="160" height="26" as="geometry" />
        </mxCell>
        <mxCell id="KymnQMp04L1_Xn4oVz9M-17" value="- _handPoint: Sprite" style="text;strokeColor=none;fillColor=none;align=left;verticalAlign=top;spacingLeft=4;spacingRight=4;overflow=hidden;rotatable=0;points=[[0,0.5],[1,0.5]];portConstraint=eastwest;whiteSpace=wrap;html=1;rounded=0;" vertex="1" parent="KymnQMp04L1_Xn4oVz9M-13">
          <mxGeometry y="108" width="160" height="26" as="geometry" />
        </mxCell>
        <mxCell id="KymnQMp04L1_Xn4oVz9M-18" value="" style="line;strokeWidth=1;fillColor=none;align=left;verticalAlign=middle;spacingTop=-1;spacingLeft=3;spacingRight=3;rotatable=0;labelPosition=right;points=[];portConstraint=eastwest;strokeColor=inherit;rounded=0;" vertex="1" parent="KymnQMp04L1_Xn4oVz9M-13">
          <mxGeometry y="134" width="160" height="8" as="geometry" />
        </mxCell>
        <mxCell id="KymnQMp04L1_Xn4oVz9M-19" value="+ HomeScene()" style="text;strokeColor=none;fillColor=none;align=left;verticalAlign=top;spacingLeft=4;spacingRight=4;overflow=hidden;rotatable=0;points=[[0,0.5],[1,0.5]];portConstraint=eastwest;whiteSpace=wrap;html=1;rounded=0;" vertex="1" parent="KymnQMp04L1_Xn4oVz9M-13">
          <mxGeometry y="142" width="160" height="36" as="geometry" />
        </mxCell>
        <mxCell id="KymnQMp04L1_Xn4oVz9M-20" value="+ Update() &amp;lt;&amp;lt; override &amp;gt;&amp;gt;" style="text;strokeColor=none;fillColor=none;align=left;verticalAlign=top;spacingLeft=4;spacingRight=4;overflow=hidden;rotatable=0;points=[[0,0.5],[1,0.5]];portConstraint=eastwest;whiteSpace=wrap;html=1;rounded=0;" vertex="1" parent="KymnQMp04L1_Xn4oVz9M-13">
          <mxGeometry y="178" width="160" height="26" as="geometry" />
        </mxCell>
        <mxCell id="KymnQMp04L1_Xn4oVz9M-21" value="+ Draw() &amp;lt;&amp;lt; override &amp;gt;&amp;gt;" style="text;strokeColor=none;fillColor=none;align=left;verticalAlign=top;spacingLeft=4;spacingRight=4;overflow=hidden;rotatable=0;points=[[0,0.5],[1,0.5]];portConstraint=eastwest;whiteSpace=wrap;html=1;rounded=0;" vertex="1" parent="KymnQMp04L1_Xn4oVz9M-13">
          <mxGeometry y="204" width="160" height="26" as="geometry" />
        </mxCell>
        <mxCell id="KymnQMp04L1_Xn4oVz9M-22" value="SettingScene" style="swimlane;fontStyle=1;align=center;verticalAlign=top;childLayout=stackLayout;horizontal=1;startSize=30;horizontalStack=0;resizeParent=1;resizeParentMax=0;resizeLast=0;collapsible=1;marginBottom=0;whiteSpace=wrap;html=1;rounded=0;" vertex="1" collapsed="1" parent="1">
          <mxGeometry x="640" y="-899" width="100" height="30" as="geometry">
            <mxRectangle x="113" y="-637" width="160" height="318" as="alternateBounds" />
          </mxGeometry>
        </mxCell>
        <mxCell id="KymnQMp04L1_Xn4oVz9M-23" value="- _backgroundMusic: Music" style="text;strokeColor=none;fillColor=none;align=left;verticalAlign=top;spacingLeft=4;spacingRight=4;overflow=hidden;rotatable=0;points=[[0,0.5],[1,0.5]];portConstraint=eastwest;whiteSpace=wrap;html=1;rounded=0;" vertex="1" parent="KymnQMp04L1_Xn4oVz9M-22">
          <mxGeometry y="30" width="160" height="26" as="geometry" />
        </mxCell>
        <mxCell id="KymnQMp04L1_Xn4oVz9M-24" value="- _muteSprite: Sprite" style="text;strokeColor=none;fillColor=none;align=left;verticalAlign=top;spacingLeft=4;spacingRight=4;overflow=hidden;rotatable=0;points=[[0,0.5],[1,0.5]];portConstraint=eastwest;whiteSpace=wrap;html=1;rounded=0;" vertex="1" parent="KymnQMp04L1_Xn4oVz9M-22">
          <mxGeometry y="56" width="160" height="26" as="geometry" />
        </mxCell>
        <mxCell id="KymnQMp04L1_Xn4oVz9M-25" value="- _keyToChange: string" style="text;strokeColor=none;fillColor=none;align=left;verticalAlign=top;spacingLeft=4;spacingRight=4;overflow=hidden;rotatable=0;points=[[0,0.5],[1,0.5]];portConstraint=eastwest;whiteSpace=wrap;html=1;rounded=0;" vertex="1" parent="KymnQMp04L1_Xn4oVz9M-22">
          <mxGeometry y="82" width="160" height="26" as="geometry" />
        </mxCell>
        <mxCell id="KymnQMp04L1_Xn4oVz9M-26" value="- _invalidKeyWarning: bool" style="text;strokeColor=none;fillColor=none;align=left;verticalAlign=top;spacingLeft=4;spacingRight=4;overflow=hidden;rotatable=0;points=[[0,0.5],[1,0.5]];portConstraint=eastwest;whiteSpace=wrap;html=1;rounded=0;" vertex="1" parent="KymnQMp04L1_Xn4oVz9M-22">
          <mxGeometry y="108" width="160" height="26" as="geometry" />
        </mxCell>
        <mxCell id="KymnQMp04L1_Xn4oVz9M-27" value="" style="line;strokeWidth=1;fillColor=none;align=left;verticalAlign=middle;spacingTop=-1;spacingLeft=3;spacingRight=3;rotatable=0;labelPosition=right;points=[];portConstraint=eastwest;strokeColor=inherit;rounded=0;" vertex="1" parent="KymnQMp04L1_Xn4oVz9M-22">
          <mxGeometry y="134" width="160" height="8" as="geometry" />
        </mxCell>
        <mxCell id="KymnQMp04L1_Xn4oVz9M-28" value="+ SettingScene()" style="text;strokeColor=none;fillColor=none;align=left;verticalAlign=top;spacingLeft=4;spacingRight=4;overflow=hidden;rotatable=0;points=[[0,0.5],[1,0.5]];portConstraint=eastwest;whiteSpace=wrap;html=1;rounded=0;" vertex="1" parent="KymnQMp04L1_Xn4oVz9M-22">
          <mxGeometry y="142" width="160" height="36" as="geometry" />
        </mxCell>
        <mxCell id="KymnQMp04L1_Xn4oVz9M-29" value="- InvalidKeyWarning: bool &amp;lt;&amp;lt;property&amp;gt;&amp;gt;" style="text;strokeColor=none;fillColor=none;align=left;verticalAlign=top;spacingLeft=4;spacingRight=4;overflow=hidden;rotatable=0;points=[[0,0.5],[1,0.5]];portConstraint=eastwest;whiteSpace=wrap;html=1;rounded=0;" vertex="1" parent="KymnQMp04L1_Xn4oVz9M-22">
          <mxGeometry y="178" width="160" height="39" as="geometry" />
        </mxCell>
        <mxCell id="KymnQMp04L1_Xn4oVz9M-30" value="- KeyToChange: string &amp;lt;&amp;lt;property&amp;gt;&amp;gt;" style="text;strokeColor=none;fillColor=none;align=left;verticalAlign=top;spacingLeft=4;spacingRight=4;overflow=hidden;rotatable=0;points=[[0,0.5],[1,0.5]];portConstraint=eastwest;whiteSpace=wrap;html=1;rounded=0;" vertex="1" parent="KymnQMp04L1_Xn4oVz9M-22">
          <mxGeometry y="217" width="160" height="49" as="geometry" />
        </mxCell>
        <mxCell id="KymnQMp04L1_Xn4oVz9M-31" value="+ Update() &amp;lt;&amp;lt; override &amp;gt;&amp;gt;" style="text;strokeColor=none;fillColor=none;align=left;verticalAlign=top;spacingLeft=4;spacingRight=4;overflow=hidden;rotatable=0;points=[[0,0.5],[1,0.5]];portConstraint=eastwest;whiteSpace=wrap;html=1;rounded=0;" vertex="1" parent="KymnQMp04L1_Xn4oVz9M-22">
          <mxGeometry y="266" width="160" height="26" as="geometry" />
        </mxCell>
        <mxCell id="KymnQMp04L1_Xn4oVz9M-32" value="+ Draw() &amp;lt;&amp;lt; override &amp;gt;&amp;gt;" style="text;strokeColor=none;fillColor=none;align=left;verticalAlign=top;spacingLeft=4;spacingRight=4;overflow=hidden;rotatable=0;points=[[0,0.5],[1,0.5]];portConstraint=eastwest;whiteSpace=wrap;html=1;rounded=0;" vertex="1" parent="KymnQMp04L1_Xn4oVz9M-22">
          <mxGeometry y="292" width="160" height="26" as="geometry" />
        </mxCell>
        <mxCell id="KymnQMp04L1_Xn4oVz9M-33" value="InstructionScene" style="swimlane;fontStyle=1;align=center;verticalAlign=top;childLayout=stackLayout;horizontal=1;startSize=30;horizontalStack=0;resizeParent=1;resizeParentMax=0;resizeLast=0;collapsible=1;marginBottom=0;whiteSpace=wrap;html=1;rounded=0;" vertex="1" collapsed="1" parent="1">
          <mxGeometry x="640" y="-840" width="130" height="30" as="geometry">
            <mxRectangle x="360" y="-637" width="230" height="399" as="alternateBounds" />
          </mxGeometry>
        </mxCell>
        <mxCell id="KymnQMp04L1_Xn4oVz9M-34" value="- _backgroundMusic: Music" style="text;strokeColor=none;fillColor=none;align=left;verticalAlign=top;spacingLeft=4;spacingRight=4;overflow=hidden;rotatable=0;points=[[0,0.5],[1,0.5]];portConstraint=eastwest;whiteSpace=wrap;html=1;rounded=0;" vertex="1" parent="KymnQMp04L1_Xn4oVz9M-33">
          <mxGeometry y="30" width="230" height="26" as="geometry" />
        </mxCell>
        <mxCell id="KymnQMp04L1_Xn4oVz9M-35" value="- _timer: Timer" style="text;strokeColor=none;fillColor=none;align=left;verticalAlign=top;spacingLeft=4;spacingRight=4;overflow=hidden;rotatable=0;points=[[0,0.5],[1,0.5]];portConstraint=eastwest;whiteSpace=wrap;html=1;rounded=0;" vertex="1" parent="KymnQMp04L1_Xn4oVz9M-33">
          <mxGeometry y="56" width="230" height="26" as="geometry" />
        </mxCell>
        <mxCell id="KymnQMp04L1_Xn4oVz9M-36" value="- _stage: uint" style="text;strokeColor=none;fillColor=none;align=left;verticalAlign=top;spacingLeft=4;spacingRight=4;overflow=hidden;rotatable=0;points=[[0,0.5],[1,0.5]];portConstraint=eastwest;whiteSpace=wrap;html=1;rounded=0;" vertex="1" parent="KymnQMp04L1_Xn4oVz9M-33">
          <mxGeometry y="82" width="230" height="26" as="geometry" />
        </mxCell>
        <mxCell id="KymnQMp04L1_Xn4oVz9M-37" value="- _mainBoard: GameBoard" style="text;strokeColor=none;fillColor=none;align=left;verticalAlign=top;spacingLeft=4;spacingRight=4;overflow=hidden;rotatable=0;points=[[0,0.5],[1,0.5]];portConstraint=eastwest;whiteSpace=wrap;html=1;rounded=0;" vertex="1" parent="KymnQMp04L1_Xn4oVz9M-33">
          <mxGeometry y="108" width="230" height="26" as="geometry" />
        </mxCell>
        <mxCell id="KymnQMp04L1_Xn4oVz9M-38" value="- _nextBoard: GameBoard" style="text;strokeColor=none;fillColor=none;align=left;verticalAlign=top;spacingLeft=4;spacingRight=4;overflow=hidden;rotatable=0;points=[[0,0.5],[1,0.5]];portConstraint=eastwest;whiteSpace=wrap;html=1;rounded=0;" vertex="1" parent="KymnQMp04L1_Xn4oVz9M-33">
          <mxGeometry y="134" width="230" height="26" as="geometry" />
        </mxCell>
        <mxCell id="KymnQMp04L1_Xn4oVz9M-39" value="- _blocksCtrl: BlocksController" style="text;strokeColor=none;fillColor=none;align=left;verticalAlign=top;spacingLeft=4;spacingRight=4;overflow=hidden;rotatable=0;points=[[0,0.5],[1,0.5]];portConstraint=eastwest;whiteSpace=wrap;html=1;rounded=0;" vertex="1" parent="KymnQMp04L1_Xn4oVz9M-33">
          <mxGeometry y="160" width="230" height="26" as="geometry" />
        </mxCell>
        <mxCell id="KymnQMp04L1_Xn4oVz9M-40" value="- _exampleTetrominos: List&amp;lt;Tetromino&amp;gt;" style="text;strokeColor=none;fillColor=none;align=left;verticalAlign=top;spacingLeft=4;spacingRight=4;overflow=hidden;rotatable=0;points=[[0,0.5],[1,0.5]];portConstraint=eastwest;whiteSpace=wrap;html=1;rounded=0;" vertex="1" parent="KymnQMp04L1_Xn4oVz9M-33">
          <mxGeometry y="186" width="230" height="26" as="geometry" />
        </mxCell>
        <mxCell id="KymnQMp04L1_Xn4oVz9M-41" value="- _saveSprite: Sprite" style="text;strokeColor=none;fillColor=none;align=left;verticalAlign=top;spacingLeft=4;spacingRight=4;overflow=hidden;rotatable=0;points=[[0,0.5],[1,0.5]];portConstraint=eastwest;whiteSpace=wrap;html=1;rounded=0;" vertex="1" parent="KymnQMp04L1_Xn4oVz9M-33">
          <mxGeometry y="212" width="230" height="26" as="geometry" />
        </mxCell>
        <mxCell id="KymnQMp04L1_Xn4oVz9M-42" value="- _loadSprite: Sprite" style="text;strokeColor=none;fillColor=none;align=left;verticalAlign=top;spacingLeft=4;spacingRight=4;overflow=hidden;rotatable=0;points=[[0,0.5],[1,0.5]];portConstraint=eastwest;whiteSpace=wrap;html=1;rounded=0;" vertex="1" parent="KymnQMp04L1_Xn4oVz9M-33">
          <mxGeometry y="238" width="230" height="26" as="geometry" />
        </mxCell>
        <mxCell id="KymnQMp04L1_Xn4oVz9M-43" value="" style="line;strokeWidth=1;fillColor=none;align=left;verticalAlign=middle;spacingTop=-1;spacingLeft=3;spacingRight=3;rotatable=0;labelPosition=right;points=[];portConstraint=eastwest;strokeColor=inherit;rounded=0;" vertex="1" parent="KymnQMp04L1_Xn4oVz9M-33">
          <mxGeometry y="264" width="230" height="8" as="geometry" />
        </mxCell>
        <mxCell id="KymnQMp04L1_Xn4oVz9M-44" value="+ InstructionScene()" style="text;strokeColor=none;fillColor=none;align=left;verticalAlign=top;spacingLeft=4;spacingRight=4;overflow=hidden;rotatable=0;points=[[0,0.5],[1,0.5]];portConstraint=eastwest;whiteSpace=wrap;html=1;rounded=0;" vertex="1" parent="KymnQMp04L1_Xn4oVz9M-33">
          <mxGeometry y="272" width="230" height="36" as="geometry" />
        </mxCell>
        <mxCell id="KymnQMp04L1_Xn4oVz9M-45" value="-&amp;nbsp;DrawKeysInstruction(string instruction, int currentStage)" style="text;strokeColor=none;fillColor=none;align=left;verticalAlign=top;spacingLeft=4;spacingRight=4;overflow=hidden;rotatable=0;points=[[0,0.5],[1,0.5]];portConstraint=eastwest;whiteSpace=wrap;html=1;rounded=0;" vertex="1" parent="KymnQMp04L1_Xn4oVz9M-33">
          <mxGeometry y="308" width="230" height="39" as="geometry" />
        </mxCell>
        <mxCell id="KymnQMp04L1_Xn4oVz9M-46" value="+ Update() &amp;lt;&amp;lt; override &amp;gt;&amp;gt;" style="text;strokeColor=none;fillColor=none;align=left;verticalAlign=top;spacingLeft=4;spacingRight=4;overflow=hidden;rotatable=0;points=[[0,0.5],[1,0.5]];portConstraint=eastwest;whiteSpace=wrap;html=1;rounded=0;" vertex="1" parent="KymnQMp04L1_Xn4oVz9M-33">
          <mxGeometry y="347" width="230" height="26" as="geometry" />
        </mxCell>
        <mxCell id="KymnQMp04L1_Xn4oVz9M-47" value="+ Draw() &amp;lt;&amp;lt; override &amp;gt;&amp;gt;" style="text;strokeColor=none;fillColor=none;align=left;verticalAlign=top;spacingLeft=4;spacingRight=4;overflow=hidden;rotatable=0;points=[[0,0.5],[1,0.5]];portConstraint=eastwest;whiteSpace=wrap;html=1;rounded=0;" vertex="1" parent="KymnQMp04L1_Xn4oVz9M-33">
          <mxGeometry y="373" width="230" height="26" as="geometry" />
        </mxCell>
        <mxCell id="KymnQMp04L1_Xn4oVz9M-48" value="GameScene" style="swimlane;fontStyle=1;align=center;verticalAlign=top;childLayout=stackLayout;horizontal=1;startSize=30;horizontalStack=0;resizeParent=1;resizeParentMax=0;resizeLast=0;collapsible=1;marginBottom=0;whiteSpace=wrap;html=1;rounded=0;" vertex="1" collapsed="1" parent="1">
          <mxGeometry x="640" y="-789" width="100" height="30" as="geometry">
            <mxRectangle x="400" y="-85" width="188" height="526" as="alternateBounds" />
          </mxGeometry>
        </mxCell>
        <mxCell id="KymnQMp04L1_Xn4oVz9M-49" value="- _backgroundMusic: Music" style="text;strokeColor=none;fillColor=none;align=left;verticalAlign=top;spacingLeft=4;spacingRight=4;overflow=hidden;rotatable=0;points=[[0,0.5],[1,0.5]];portConstraint=eastwest;whiteSpace=wrap;html=1;rounded=0;" vertex="1" parent="KymnQMp04L1_Xn4oVz9M-48">
          <mxGeometry y="30" width="188" height="26" as="geometry" />
        </mxCell>
        <mxCell id="KymnQMp04L1_Xn4oVz9M-50" value="- _gameOverSE: SoundEffect" style="text;strokeColor=none;fillColor=none;align=left;verticalAlign=top;spacingLeft=4;spacingRight=4;overflow=hidden;rotatable=0;points=[[0,0.5],[1,0.5]];portConstraint=eastwest;whiteSpace=wrap;html=1;rounded=0;" vertex="1" parent="KymnQMp04L1_Xn4oVz9M-48">
          <mxGeometry y="56" width="188" height="26" as="geometry" />
        </mxCell>
        <mxCell id="KymnQMp04L1_Xn4oVz9M-51" value="- _defaultTimer: Timer" style="text;strokeColor=none;fillColor=none;align=left;verticalAlign=top;spacingLeft=4;spacingRight=4;overflow=hidden;rotatable=0;points=[[0,0.5],[1,0.5]];portConstraint=eastwest;whiteSpace=wrap;html=1;rounded=0;" vertex="1" parent="KymnQMp04L1_Xn4oVz9M-48">
          <mxGeometry y="82" width="188" height="26" as="geometry" />
        </mxCell>
        <mxCell id="KymnQMp04L1_Xn4oVz9M-52" value="- _mainBoard: GameBoard" style="text;strokeColor=none;fillColor=none;align=left;verticalAlign=top;spacingLeft=4;spacingRight=4;overflow=hidden;rotatable=0;points=[[0,0.5],[1,0.5]];portConstraint=eastwest;whiteSpace=wrap;html=1;rounded=0;" vertex="1" parent="KymnQMp04L1_Xn4oVz9M-48">
          <mxGeometry y="108" width="188" height="26" as="geometry" />
        </mxCell>
        <mxCell id="KymnQMp04L1_Xn4oVz9M-53" value="- _nextBoard: GameBoard" style="text;strokeColor=none;fillColor=none;align=left;verticalAlign=top;spacingLeft=4;spacingRight=4;overflow=hidden;rotatable=0;points=[[0,0.5],[1,0.5]];portConstraint=eastwest;whiteSpace=wrap;html=1;rounded=0;" vertex="1" parent="KymnQMp04L1_Xn4oVz9M-48">
          <mxGeometry y="134" width="188" height="26" as="geometry" />
        </mxCell>
        <mxCell id="KymnQMp04L1_Xn4oVz9M-54" value="- _blocksCtrl: BlocksController" style="text;strokeColor=none;fillColor=none;align=left;verticalAlign=top;spacingLeft=4;spacingRight=4;overflow=hidden;rotatable=0;points=[[0,0.5],[1,0.5]];portConstraint=eastwest;whiteSpace=wrap;html=1;rounded=0;" vertex="1" parent="KymnQMp04L1_Xn4oVz9M-48">
          <mxGeometry y="160" width="188" height="26" as="geometry" />
        </mxCell>
        <mxCell id="KymnQMp04L1_Xn4oVz9M-55" value="- _currentTetromino: Tetromino" style="text;strokeColor=none;fillColor=none;align=left;verticalAlign=top;spacingLeft=4;spacingRight=4;overflow=hidden;rotatable=0;points=[[0,0.5],[1,0.5]];portConstraint=eastwest;whiteSpace=wrap;html=1;rounded=0;" vertex="1" parent="KymnQMp04L1_Xn4oVz9M-48">
          <mxGeometry y="186" width="188" height="26" as="geometry" />
        </mxCell>
        <mxCell id="KymnQMp04L1_Xn4oVz9M-56" value="- _nextTetromino: Tetromino" style="text;strokeColor=none;fillColor=none;align=left;verticalAlign=top;spacingLeft=4;spacingRight=4;overflow=hidden;rotatable=0;points=[[0,0.5],[1,0.5]];portConstraint=eastwest;whiteSpace=wrap;html=1;rounded=0;" vertex="1" parent="KymnQMp04L1_Xn4oVz9M-48">
          <mxGeometry y="212" width="188" height="26" as="geometry" />
        </mxCell>
        <mxCell id="KymnQMp04L1_Xn4oVz9M-57" value="- _gameOver: bool" style="text;strokeColor=none;fillColor=none;align=left;verticalAlign=top;spacingLeft=4;spacingRight=4;overflow=hidden;rotatable=0;points=[[0,0.5],[1,0.5]];portConstraint=eastwest;whiteSpace=wrap;html=1;rounded=0;" vertex="1" parent="KymnQMp04L1_Xn4oVz9M-48">
          <mxGeometry y="238" width="188" height="26" as="geometry" />
        </mxCell>
        <mxCell id="KymnQMp04L1_Xn4oVz9M-58" value="- _timeOfSteps: uint" style="text;strokeColor=none;fillColor=none;align=left;verticalAlign=top;spacingLeft=4;spacingRight=4;overflow=hidden;rotatable=0;points=[[0,0.5],[1,0.5]];portConstraint=eastwest;whiteSpace=wrap;html=1;rounded=0;" vertex="1" parent="KymnQMp04L1_Xn4oVz9M-48">
          <mxGeometry y="264" width="188" height="26" as="geometry" />
        </mxCell>
        <mxCell id="KymnQMp04L1_Xn4oVz9M-59" value="- _lastUpdateTimer: uint" style="text;strokeColor=none;fillColor=none;align=left;verticalAlign=top;spacingLeft=4;spacingRight=4;overflow=hidden;rotatable=0;points=[[0,0.5],[1,0.5]];portConstraint=eastwest;whiteSpace=wrap;html=1;rounded=0;" vertex="1" parent="KymnQMp04L1_Xn4oVz9M-48">
          <mxGeometry y="290" width="188" height="26" as="geometry" />
        </mxCell>
        <mxCell id="KymnQMp04L1_Xn4oVz9M-60" value="- _playedTimer: uint" style="text;strokeColor=none;fillColor=none;align=left;verticalAlign=top;spacingLeft=4;spacingRight=4;overflow=hidden;rotatable=0;points=[[0,0.5],[1,0.5]];portConstraint=eastwest;whiteSpace=wrap;html=1;rounded=0;" vertex="1" parent="KymnQMp04L1_Xn4oVz9M-48">
          <mxGeometry y="316" width="188" height="26" as="geometry" />
        </mxCell>
        <mxCell id="KymnQMp04L1_Xn4oVz9M-61" value="- _wasMovedDown: uint" style="text;strokeColor=none;fillColor=none;align=left;verticalAlign=top;spacingLeft=4;spacingRight=4;overflow=hidden;rotatable=0;points=[[0,0.5],[1,0.5]];portConstraint=eastwest;whiteSpace=wrap;html=1;rounded=0;" vertex="1" parent="KymnQMp04L1_Xn4oVz9M-48">
          <mxGeometry y="342" width="188" height="26" as="geometry" />
        </mxCell>
        <mxCell id="KymnQMp04L1_Xn4oVz9M-62" value="" style="line;strokeWidth=1;fillColor=none;align=left;verticalAlign=middle;spacingTop=-1;spacingLeft=3;spacingRight=3;rotatable=0;labelPosition=right;points=[];portConstraint=eastwest;strokeColor=inherit;rounded=0;" vertex="1" parent="KymnQMp04L1_Xn4oVz9M-48">
          <mxGeometry y="368" width="188" height="8" as="geometry" />
        </mxCell>
        <mxCell id="KymnQMp04L1_Xn4oVz9M-63" value="+ GameScene()" style="text;strokeColor=none;fillColor=none;align=left;verticalAlign=top;spacingLeft=4;spacingRight=4;overflow=hidden;rotatable=0;points=[[0,0.5],[1,0.5]];portConstraint=eastwest;whiteSpace=wrap;html=1;rounded=0;" vertex="1" parent="KymnQMp04L1_Xn4oVz9M-48">
          <mxGeometry y="376" width="188" height="36" as="geometry" />
        </mxCell>
        <mxCell id="KymnQMp04L1_Xn4oVz9M-64" value="+ Update() &amp;lt;&amp;lt; override &amp;gt;&amp;gt;" style="text;strokeColor=none;fillColor=none;align=left;verticalAlign=top;spacingLeft=4;spacingRight=4;overflow=hidden;rotatable=0;points=[[0,0.5],[1,0.5]];portConstraint=eastwest;whiteSpace=wrap;html=1;rounded=0;" vertex="1" parent="KymnQMp04L1_Xn4oVz9M-48">
          <mxGeometry y="412" width="188" height="26" as="geometry" />
        </mxCell>
        <mxCell id="KymnQMp04L1_Xn4oVz9M-65" value="+ Draw() &amp;lt;&amp;lt; override &amp;gt;&amp;gt;" style="text;strokeColor=none;fillColor=none;align=left;verticalAlign=top;spacingLeft=4;spacingRight=4;overflow=hidden;rotatable=0;points=[[0,0.5],[1,0.5]];portConstraint=eastwest;whiteSpace=wrap;html=1;rounded=0;" vertex="1" parent="KymnQMp04L1_Xn4oVz9M-48">
          <mxGeometry y="438" width="188" height="36" as="geometry" />
        </mxCell>
        <mxCell id="KymnQMp04L1_Xn4oVz9M-66" value="+ Save()" style="text;strokeColor=none;fillColor=none;align=left;verticalAlign=top;spacingLeft=4;spacingRight=4;overflow=hidden;rotatable=0;points=[[0,0.5],[1,0.5]];portConstraint=eastwest;whiteSpace=wrap;html=1;rounded=0;" vertex="1" parent="KymnQMp04L1_Xn4oVz9M-48">
          <mxGeometry y="474" width="188" height="26" as="geometry" />
        </mxCell>
        <mxCell id="KymnQMp04L1_Xn4oVz9M-67" value="+ Load()" style="text;strokeColor=none;fillColor=none;align=left;verticalAlign=top;spacingLeft=4;spacingRight=4;overflow=hidden;rotatable=0;points=[[0,0.5],[1,0.5]];portConstraint=eastwest;whiteSpace=wrap;html=1;rounded=0;" vertex="1" parent="KymnQMp04L1_Xn4oVz9M-48">
          <mxGeometry y="500" width="188" height="26" as="geometry" />
        </mxCell>
        <mxCell id="KymnQMp04L1_Xn4oVz9M-68" value="EndingScene" style="swimlane;fontStyle=1;align=center;verticalAlign=top;childLayout=stackLayout;horizontal=1;startSize=0;horizontalStack=0;resizeParent=1;resizeParentMax=0;resizeLast=0;collapsible=1;marginBottom=0;whiteSpace=wrap;html=1;rounded=0;" vertex="1" collapsed="1" parent="1">
          <mxGeometry x="640" y="-729" width="100" height="30" as="geometry">
            <mxRectangle x="113" y="-267" width="180" height="273" as="alternateBounds" />
          </mxGeometry>
        </mxCell>
        <mxCell id="KymnQMp04L1_Xn4oVz9M-69" value="- _backgroundMusic: Music" style="text;strokeColor=none;fillColor=none;align=left;verticalAlign=top;spacingLeft=4;spacingRight=4;overflow=hidden;rotatable=0;points=[[0,0.5],[1,0.5]];portConstraint=eastwest;whiteSpace=wrap;html=1;rounded=0;" vertex="1" parent="KymnQMp04L1_Xn4oVz9M-68">
          <mxGeometry y="34" width="180" height="26" as="geometry" />
        </mxCell>
        <mxCell id="KymnQMp04L1_Xn4oVz9M-70" value="- _handPoint: Sprite" style="text;strokeColor=none;fillColor=none;align=left;verticalAlign=top;spacingLeft=4;spacingRight=4;overflow=hidden;rotatable=0;points=[[0,0.5],[1,0.5]];portConstraint=eastwest;whiteSpace=wrap;html=1;rounded=0;" vertex="1" parent="KymnQMp04L1_Xn4oVz9M-68">
          <mxGeometry y="60" width="180" height="26" as="geometry" />
        </mxCell>
        <mxCell id="KymnQMp04L1_Xn4oVz9M-71" value="- _previousPlayedTime: uint" style="text;strokeColor=none;fillColor=none;align=left;verticalAlign=top;spacingLeft=4;spacingRight=4;overflow=hidden;rotatable=0;points=[[0,0.5],[1,0.5]];portConstraint=eastwest;whiteSpace=wrap;html=1;rounded=0;" vertex="1" parent="KymnQMp04L1_Xn4oVz9M-68">
          <mxGeometry y="86" width="180" height="26" as="geometry" />
        </mxCell>
        <mxCell id="KymnQMp04L1_Xn4oVz9M-72" value="- _previousScore: uint" style="text;strokeColor=none;fillColor=none;align=left;verticalAlign=top;spacingLeft=4;spacingRight=4;overflow=hidden;rotatable=0;points=[[0,0.5],[1,0.5]];portConstraint=eastwest;whiteSpace=wrap;html=1;rounded=0;" vertex="1" parent="KymnQMp04L1_Xn4oVz9M-68">
          <mxGeometry y="112" width="180" height="26" as="geometry" />
        </mxCell>
        <mxCell id="KymnQMp04L1_Xn4oVz9M-73" value="" style="line;strokeWidth=1;fillColor=none;align=left;verticalAlign=middle;spacingTop=-1;spacingLeft=3;spacingRight=3;rotatable=0;labelPosition=right;points=[];portConstraint=eastwest;strokeColor=inherit;rounded=0;" vertex="1" parent="KymnQMp04L1_Xn4oVz9M-68">
          <mxGeometry y="138" width="180" height="8" as="geometry" />
        </mxCell>
        <mxCell id="KymnQMp04L1_Xn4oVz9M-74" value="+&amp;nbsp;EndingScene()" style="text;strokeColor=none;fillColor=none;align=left;verticalAlign=top;spacingLeft=4;spacingRight=4;overflow=hidden;rotatable=0;points=[[0,0.5],[1,0.5]];portConstraint=eastwest;whiteSpace=wrap;html=1;rounded=0;" vertex="1" parent="KymnQMp04L1_Xn4oVz9M-68">
          <mxGeometry y="146" width="180" height="26" as="geometry" />
        </mxCell>
        <mxCell id="KymnQMp04L1_Xn4oVz9M-75" value="+&amp;nbsp;EndingScene(&lt;br&gt;uint playedTime, uint score)" style="text;strokeColor=none;fillColor=none;align=left;verticalAlign=top;spacingLeft=4;spacingRight=4;overflow=hidden;rotatable=0;points=[[0,0.5],[1,0.5]];portConstraint=eastwest;whiteSpace=wrap;html=1;rounded=0;" vertex="1" parent="KymnQMp04L1_Xn4oVz9M-68">
          <mxGeometry y="172" width="180" height="49" as="geometry" />
        </mxCell>
        <mxCell id="KymnQMp04L1_Xn4oVz9M-76" value="+ Update() &amp;lt;&amp;lt; override &amp;gt;&amp;gt;" style="text;strokeColor=none;fillColor=none;align=left;verticalAlign=top;spacingLeft=4;spacingRight=4;overflow=hidden;rotatable=0;points=[[0,0.5],[1,0.5]];portConstraint=eastwest;whiteSpace=wrap;html=1;rounded=0;" vertex="1" parent="KymnQMp04L1_Xn4oVz9M-68">
          <mxGeometry y="221" width="180" height="26" as="geometry" />
        </mxCell>
        <mxCell id="KymnQMp04L1_Xn4oVz9M-77" value="+ Draw() &amp;lt;&amp;lt; override &amp;gt;&amp;gt;" style="text;strokeColor=none;fillColor=none;align=left;verticalAlign=top;spacingLeft=4;spacingRight=4;overflow=hidden;rotatable=0;points=[[0,0.5],[1,0.5]];portConstraint=eastwest;whiteSpace=wrap;html=1;rounded=0;" vertex="1" parent="KymnQMp04L1_Xn4oVz9M-68">
          <mxGeometry y="247" width="180" height="26" as="geometry" />
        </mxCell>
        <mxCell id="KymnQMp04L1_Xn4oVz9M-78" value="ResultScene" style="swimlane;fontStyle=1;align=center;verticalAlign=top;childLayout=stackLayout;horizontal=1;startSize=30;horizontalStack=0;resizeParent=1;resizeParentMax=0;resizeLast=0;collapsible=1;marginBottom=0;whiteSpace=wrap;html=1;rounded=0;" vertex="1" collapsed="1" parent="1">
          <mxGeometry x="640" y="-669" width="100" height="30" as="geometry">
            <mxRectangle x="113" y="65" width="170" height="380" as="alternateBounds" />
          </mxGeometry>
        </mxCell>
        <mxCell id="KymnQMp04L1_Xn4oVz9M-79" value="- _backgroundMusic: Music" style="text;strokeColor=none;fillColor=none;align=left;verticalAlign=top;spacingLeft=4;spacingRight=4;overflow=hidden;rotatable=0;points=[[0,0.5],[1,0.5]];portConstraint=eastwest;whiteSpace=wrap;html=1;rounded=0;" vertex="1" parent="KymnQMp04L1_Xn4oVz9M-78">
          <mxGeometry y="30" width="170" height="26" as="geometry" />
        </mxCell>
        <mxCell id="KymnQMp04L1_Xn4oVz9M-80" value="- _filterBy: string" style="text;strokeColor=none;fillColor=none;align=left;verticalAlign=top;spacingLeft=4;spacingRight=4;overflow=hidden;rotatable=0;points=[[0,0.5],[1,0.5]];portConstraint=eastwest;whiteSpace=wrap;html=1;rounded=0;" vertex="1" parent="KymnQMp04L1_Xn4oVz9M-78">
          <mxGeometry y="56" width="170" height="26" as="geometry" />
        </mxCell>
        <mxCell id="KymnQMp04L1_Xn4oVz9M-81" value="- _sortBy: string" style="text;strokeColor=none;fillColor=none;align=left;verticalAlign=top;spacingLeft=4;spacingRight=4;overflow=hidden;rotatable=0;points=[[0,0.5],[1,0.5]];portConstraint=eastwest;whiteSpace=wrap;html=1;rounded=0;" vertex="1" parent="KymnQMp04L1_Xn4oVz9M-78">
          <mxGeometry y="82" width="170" height="26" as="geometry" />
        </mxCell>
        <mxCell id="KymnQMp04L1_Xn4oVz9M-82" value="- _sortUp: bool" style="text;strokeColor=none;fillColor=none;align=left;verticalAlign=top;spacingLeft=4;spacingRight=4;overflow=hidden;rotatable=0;points=[[0,0.5],[1,0.5]];portConstraint=eastwest;whiteSpace=wrap;html=1;rounded=0;" vertex="1" parent="KymnQMp04L1_Xn4oVz9M-78">
          <mxGeometry y="108" width="170" height="36" as="geometry" />
        </mxCell>
        <mxCell id="KymnQMp04L1_Xn4oVz9M-83" value="- _results: List&amp;lt;Result&amp;gt;" style="text;strokeColor=none;fillColor=none;align=left;verticalAlign=top;spacingLeft=4;spacingRight=4;overflow=hidden;rotatable=0;points=[[0,0.5],[1,0.5]];portConstraint=eastwest;whiteSpace=wrap;html=1;rounded=0;" vertex="1" parent="KymnQMp04L1_Xn4oVz9M-78">
          <mxGeometry y="144" width="170" height="26" as="geometry" />
        </mxCell>
        <mxCell id="KymnQMp04L1_Xn4oVz9M-84" value="" style="line;strokeWidth=1;fillColor=none;align=left;verticalAlign=middle;spacingTop=-1;spacingLeft=3;spacingRight=3;rotatable=0;labelPosition=right;points=[];portConstraint=eastwest;strokeColor=inherit;rounded=0;" vertex="1" parent="KymnQMp04L1_Xn4oVz9M-78">
          <mxGeometry y="170" width="170" height="8" as="geometry" />
        </mxCell>
        <mxCell id="KymnQMp04L1_Xn4oVz9M-85" value="+ ResultScene()" style="text;strokeColor=none;fillColor=none;align=left;verticalAlign=top;spacingLeft=4;spacingRight=4;overflow=hidden;rotatable=0;points=[[0,0.5],[1,0.5]];portConstraint=eastwest;whiteSpace=wrap;html=1;rounded=0;" vertex="1" parent="KymnQMp04L1_Xn4oVz9M-78">
          <mxGeometry y="178" width="170" height="36" as="geometry" />
        </mxCell>
        <mxCell id="KymnQMp04L1_Xn4oVz9M-86" value="+ Update() &amp;lt;&amp;lt; override &amp;gt;&amp;gt;" style="text;strokeColor=none;fillColor=none;align=left;verticalAlign=top;spacingLeft=4;spacingRight=4;overflow=hidden;rotatable=0;points=[[0,0.5],[1,0.5]];portConstraint=eastwest;whiteSpace=wrap;html=1;rounded=0;" vertex="1" parent="KymnQMp04L1_Xn4oVz9M-78">
          <mxGeometry y="214" width="170" height="26" as="geometry" />
        </mxCell>
        <mxCell id="KymnQMp04L1_Xn4oVz9M-87" value="+ Draw() &amp;lt;&amp;lt; override &amp;gt;&amp;gt;" style="text;strokeColor=none;fillColor=none;align=left;verticalAlign=top;spacingLeft=4;spacingRight=4;overflow=hidden;rotatable=0;points=[[0,0.5],[1,0.5]];portConstraint=eastwest;whiteSpace=wrap;html=1;rounded=0;" vertex="1" parent="KymnQMp04L1_Xn4oVz9M-78">
          <mxGeometry y="240" width="170" height="36" as="geometry" />
        </mxCell>
        <mxCell id="KymnQMp04L1_Xn4oVz9M-88" value="-&amp;nbsp;CheckFilter()" style="text;strokeColor=none;fillColor=none;align=left;verticalAlign=top;spacingLeft=4;spacingRight=4;overflow=hidden;rotatable=0;points=[[0,0.5],[1,0.5]];portConstraint=eastwest;whiteSpace=wrap;html=1;rounded=0;" vertex="1" parent="KymnQMp04L1_Xn4oVz9M-78">
          <mxGeometry y="276" width="170" height="26" as="geometry" />
        </mxCell>
        <mxCell id="KymnQMp04L1_Xn4oVz9M-89" value="-&amp;nbsp;Filter(LevelType levelType)" style="text;strokeColor=none;fillColor=none;align=left;verticalAlign=top;spacingLeft=4;spacingRight=4;overflow=hidden;rotatable=0;points=[[0,0.5],[1,0.5]];portConstraint=eastwest;whiteSpace=wrap;html=1;rounded=0;" vertex="1" parent="KymnQMp04L1_Xn4oVz9M-78">
          <mxGeometry y="302" width="170" height="26" as="geometry" />
        </mxCell>
        <mxCell id="KymnQMp04L1_Xn4oVz9M-90" value="-&amp;nbsp;CheckSort()" style="text;strokeColor=none;fillColor=none;align=left;verticalAlign=top;spacingLeft=4;spacingRight=4;overflow=hidden;rotatable=0;points=[[0,0.5],[1,0.5]];portConstraint=eastwest;whiteSpace=wrap;html=1;rounded=0;" vertex="1" parent="KymnQMp04L1_Xn4oVz9M-78">
          <mxGeometry y="328" width="170" height="26" as="geometry" />
        </mxCell>
        <mxCell id="KymnQMp04L1_Xn4oVz9M-91" value="- Sort()" style="text;strokeColor=none;fillColor=none;align=left;verticalAlign=top;spacingLeft=4;spacingRight=4;overflow=hidden;rotatable=0;points=[[0,0.5],[1,0.5]];portConstraint=eastwest;whiteSpace=wrap;html=1;rounded=0;" vertex="1" parent="KymnQMp04L1_Xn4oVz9M-78">
          <mxGeometry y="354" width="170" height="26" as="geometry" />
        </mxCell>
        <mxCell id="KymnQMp04L1_Xn4oVz9M-92" value="Use" style="endArrow=open;endSize=12;dashed=1;html=1;rounded=0;" edge="1" parent="1" source="KymnQMp04L1_Xn4oVz9M-9" target="KymnQMp04L1_Xn4oVz9M-1">
          <mxGeometry x="-0.5294" width="160" relative="1" as="geometry">
            <mxPoint x="-9.5" y="-440" as="sourcePoint" />
            <mxPoint x="-70.5" y="-519" as="targetPoint" />
            <mxPoint as="offset" />
          </mxGeometry>
        </mxCell>
        <mxCell id="KymnQMp04L1_Xn4oVz9M-93" value="" style="endArrow=block;endFill=0;endSize=12;html=1;rounded=0;" edge="1" parent="1" source="KymnQMp04L1_Xn4oVz9M-13" target="KymnQMp04L1_Xn4oVz9M-1">
          <mxGeometry width="160" relative="1" as="geometry">
            <mxPoint x="228" y="-158" as="sourcePoint" />
            <mxPoint x="197" y="-158" as="targetPoint" />
            <Array as="points">
              <mxPoint x="587" y="-944" />
              <mxPoint x="587" y="-794" />
            </Array>
          </mxGeometry>
        </mxCell>
        <mxCell id="KymnQMp04L1_Xn4oVz9M-94" value="" style="endArrow=block;endFill=0;endSize=12;html=1;rounded=0;" edge="1" parent="1" source="KymnQMp04L1_Xn4oVz9M-22" target="KymnQMp04L1_Xn4oVz9M-1">
          <mxGeometry width="160" relative="1" as="geometry">
            <mxPoint x="650" y="-959" as="sourcePoint" />
            <mxPoint x="547" y="-784" as="targetPoint" />
            <Array as="points">
              <mxPoint x="587" y="-884" />
              <mxPoint x="587" y="-794" />
            </Array>
          </mxGeometry>
        </mxCell>
        <mxCell id="KymnQMp04L1_Xn4oVz9M-96" value="" style="endArrow=block;endFill=0;endSize=12;html=1;rounded=0;" edge="1" parent="1" source="KymnQMp04L1_Xn4oVz9M-33" target="KymnQMp04L1_Xn4oVz9M-1">
          <mxGeometry width="160" relative="1" as="geometry">
            <mxPoint x="650" y="-905" as="sourcePoint" />
            <mxPoint x="547" y="-784" as="targetPoint" />
            <Array as="points">
              <mxPoint x="587" y="-824" />
              <mxPoint x="587" y="-794" />
            </Array>
          </mxGeometry>
        </mxCell>
        <mxCell id="KymnQMp04L1_Xn4oVz9M-97" value="" style="endArrow=block;endFill=0;endSize=12;html=1;rounded=0;" edge="1" parent="1" source="KymnQMp04L1_Xn4oVz9M-48" target="KymnQMp04L1_Xn4oVz9M-1">
          <mxGeometry width="160" relative="1" as="geometry">
            <mxPoint x="660" y="-895" as="sourcePoint" />
            <mxPoint x="557" y="-774" as="targetPoint" />
            <Array as="points">
              <mxPoint x="587" y="-774" />
              <mxPoint x="587" y="-794" />
            </Array>
          </mxGeometry>
        </mxCell>
        <mxCell id="KymnQMp04L1_Xn4oVz9M-98" value="" style="endArrow=block;endFill=0;endSize=12;html=1;rounded=0;" edge="1" parent="1" source="KymnQMp04L1_Xn4oVz9M-68" target="KymnQMp04L1_Xn4oVz9M-1">
          <mxGeometry width="160" relative="1" as="geometry">
            <mxPoint x="650" y="-764" as="sourcePoint" />
            <mxPoint x="547" y="-784" as="targetPoint" />
            <Array as="points">
              <mxPoint x="587" y="-714" />
              <mxPoint x="587" y="-794" />
            </Array>
          </mxGeometry>
        </mxCell>
        <mxCell id="KymnQMp04L1_Xn4oVz9M-99" value="" style="endArrow=block;endFill=0;endSize=12;html=1;rounded=0;" edge="1" parent="1" source="KymnQMp04L1_Xn4oVz9M-78" target="KymnQMp04L1_Xn4oVz9M-1">
          <mxGeometry width="160" relative="1" as="geometry">
            <mxPoint x="660" y="-754" as="sourcePoint" />
            <mxPoint x="557" y="-774" as="targetPoint" />
            <Array as="points">
              <mxPoint x="587" y="-654" />
              <mxPoint x="587" y="-794" />
            </Array>
          </mxGeometry>
        </mxCell>
        <mxCell id="KymnQMp04L1_Xn4oVz9M-100" value="" style="shape=umlFrame;whiteSpace=wrap;html=1;pointerEvents=0;width=10;height=15;rounded=0;dashed=1;" vertex="1" parent="1">
          <mxGeometry x="370" y="-990" width="420" height="370" as="geometry" />
        </mxCell>
        <mxCell id="KymnQMp04L1_Xn4oVz9M-102" value="ask" style="html=1;verticalAlign=bottom;endArrow=block;edgeStyle=elbowEdgeStyle;elbow=vertical;curved=0;rounded=0;" edge="1" parent="1" target="KymnQMp04L1_Xn4oVz9M-9">
          <mxGeometry width="80" relative="1" as="geometry">
            <mxPoint x="148" y="-960" as="sourcePoint" />
            <mxPoint x="340" y="-800" as="targetPoint" />
          </mxGeometry>
        </mxCell>
        <mxCell id="KymnQMp04L1_Xn4oVz9M-105" value="creates" style="html=1;verticalAlign=bottom;endArrow=block;edgeStyle=elbowEdgeStyle;elbow=vertical;curved=0;rounded=0;exitX=1;exitY=0.14;exitDx=0;exitDy=0;exitPerimeter=0;" edge="1" parent="1" source="KymnQMp04L1_Xn4oVz9M-9" target="KymnQMp04L1_Xn4oVz9M-100">
          <mxGeometry width="80" relative="1" as="geometry">
            <mxPoint x="260" y="-800" as="sourcePoint" />
            <mxPoint x="340" y="-800" as="targetPoint" />
          </mxGeometry>
        </mxCell>
        <mxCell id="KymnQMp04L1_Xn4oVz9M-106" value="&lt;b&gt;Factory Method Pattern&lt;/b&gt;" style="shape=umlFrame;whiteSpace=wrap;html=1;pointerEvents=0;width=80;height=60;rounded=0;" vertex="1" parent="1">
          <mxGeometry x="26" y="-1020" width="774" height="410" as="geometry" />
        </mxCell>
      </root>
    </mxGraphModel>
  </diagram>
</mxfile>
